<svg width="720" height="192" viewBox="0 0 720 192" fill="none" xmlns="http://www.w3.org/2000/svg" role="img" aria-labelledby="title">
  <title id="title">Liebe Tag Logistics</title>
  <g opacity="0.08" fill="#000000">
    <path d="M60 66H98L82 82H44L60 66Z"/>
    <path d="M40 92H78L62 108H24L40 92Z"/>
    <path d="M20 118H58L42 134H4L20 118Z"/>
  </g>
  <path d="M131 42H236L204 78H263L132 164H77L121 108H67L131 42ZM151 62L111 92H165L120 143L218 94H159L190 62H151Z" fill="#050505"/>
  <path d="M303 74H326V126H392V146H303V74Z" fill="#050505"/>
  <path d="M413 74H436V146H413V74Z" fill="#050505"/>
  <path d="M462 74H541V92H485V101H535V119H485V128H543V146H462V74Z" fill="#050505"/>
  <path d="M568 74H631C646 74 655 82 655 94C655 102 651 108 643 111C653 114 659 120 659 129C659 141 649 146 633 146H568V74ZM591 92V104H626C631 104 634 102 634 98C634 94 631 92 626 92H591ZM591 117V129H630C635 129 638 127 638 123C638 119 635 117 630 117H591Z" fill="#050505"/>
  <path d="M304 158H310V171H329V176H304V158Z" fill="#050505"/>
  <path d="M356 158H362V176H356V158Z" fill="#050505"/>
  <path d="M391 167C391 161 397 157 407 157C417 157 423 161 423 167C423 173 417 177 407 177C397 177 391 173 391 167ZM397 167C397 170 401 172 407 172C413 172 417 170 417 167C417 164 413 162 407 162C401 162 397 164 397 167Z" fill="#050505"/>
  <path d="M453 167C453 161 459 157 469 157C477 157 482 160 484 164H477C475 162 472 162 469 162C463 162 459 164 459 167C459 170 463 172 469 172C474 172 477 171 478 169H468V165H485V176H480L479 173C476 176 472 177 468 177C459 177 453 173 453 167Z" fill="#050505"/>
  <path d="M515 158H521V176H515V158Z" fill="#050505"/>
  <path d="M550 170H556C556 172 560 173 565 173C570 173 573 172 573 170C573 168 571 168 564 167C556 166 551 165 551 162C551 159 556 157 564 157C573 157 578 159 579 164H573C572 162 568 161 564 161C560 161 557 162 557 163C557 165 560 165 566 166C574 167 579 168 579 172C579 175 574 177 565 177C556 177 551 175 550 170Z" fill="#050505"/>
  <path d="M605 158H635V163H623V176H617V163H605V158Z" fill="#050505"/>
  <path d="M664 158H670V176H664V158Z" fill="#050505"/>
</svg>
