<svg width="900" height="260" viewBox="0 0 900 260" fill="none" xmlns="http://www.w3.org/2000/svg" role="img" aria-labelledby="title">
  <title id="title">Liebe Tag Logistics</title>
  <g transform="translate(18 24)">
    <g fill="#EDEDED">
      <path d="M86 36H148L124 60H62L86 36Z"/>
      <path d="M58 76H120L96 100H34L58 76Z"/>
      <path d="M30 116H92L68 140H6L30 116Z"/>
    </g>
    <path d="M178 22H322L270 76H354L178 214H96L160 134H78L178 22ZM206 52L138 104H218L154 184L294 106H218L270 52H206Z" fill="#050505"/>
  </g>
  <text x="392" y="112" fill="#050505" font-family="Montserrat, Arial, sans-serif" font-size="72" font-weight="700" letter-spacing="2">LIEBE</text>
  <text x="638" y="112" fill="#050505" font-family="Montserrat, Arial, sans-serif" font-size="72" font-weight="400" letter-spacing="1">TAG</text>
  <text x="482" y="166" fill="#050505" font-family="Montserrat, Arial, sans-serif" font-size="24" font-weight="400" letter-spacing="22">LOGISTICS</text>
</svg>
